<?xml version="1.0" encoding="utf-8"?>
<!DOCTYPE svg PUBLIC "-//W3C//DTD SVG 1.1//EN" "http://www.w3.org/Graphics/SVG/1.1/DTD/svg11.dtd">
<svg version="1.1" id="Лого_для_печати_xA0_Изображение_1_"
	 xmlns="http://www.w3.org/2000/svg" xmlns:xlink="http://www.w3.org/1999/xlink" x="0px" y="0px" viewBox="120 160 2715 1328"
	 enable-background="new 0 0 2835 1378" xml:space="preserve">
<g>
	<g>
		<path fill="#FFFFFF" d="M0.1,1379.1C0.1,920.9,0.1,462.8,0,4.6C0,0.8,0.8,0,4.6,0c942.3,0.1,1884.7,0.1,2827,0
			c3.7,0,4.6,0.8,4.6,4.6c-0.1,456.7-0.1,913.3,0,1370c0,3.7-0.8,4.6-4.6,4.6C1887.8,1379.1,943.9,1379.1,0.1,1379.1z"/>
		<path fill="#FBF9F9" d="M1320.1,1073.1c64,0,128,0,191.9,0.1c95.1,0,190.3,0,285.4,0c2.3,0,4.7-0.1,7-0.2c0.3,0,0.5,0.1,0.7,0.3
			c-1.4,1.4-3.1,0.9-4.7,0.9c-159.4,0-318.7,0-478.1,0c-1.2,0-2.3-0.1-3.5-0.1C1319.2,1073.7,1319.6,1073.4,1320.1,1073.1z"/>
		<path fill="#CDCECD" d="M1464.5,1018.1c-4,0-7.5-0.1-11,0c-2.6,0.1-3.3-0.9-2.3-3.1c1.5-3.3,3.5-6.5,7.6-5.8
			C1463.5,1009.9,1464.5,1013.7,1464.5,1018.1z"/>
	</g>
</g>
<g>
	<path fill="#006A4A" d="M1267.3,1125c-2.2-0.1-4.3-0.3-6.5-0.3c-373.4,0-746.9,0-1120.3,0c-6.5,0-6.5,0-6.5-6.6
		c0-166.3,0-332.6-0.1-498.9c0-5.1,1.2-6.2,6.2-6.2c374.1,0.1,748.2,0.1,1122.3,0.1c2,0,4,0.1,6,0.1c1.5,1.3,1.7,3.2,1.8,5
		c0.1,2,0.1,4,0.1,6c0,163,0,326,0,489c0,3.3,0.4,6.7-0.7,9.9C1269.1,1124.2,1268.3,1124.8,1267.3,1125z"/>
	<path fill="#006A4A" d="M1751.6,612.2c-5.6-6.8-11.2-13.5-16.7-20.3c-9.1-11.1-18.2-22.2-27.3-33.3c-5.4-6.5-11-12.9-16.4-19.5
		c-7.6-9.2-15-18.4-22.6-27.6c-5.6-6.8-11.5-13.4-17.1-20.2c-7.4-8.9-14.5-18-21.9-26.9c-5.5-6.7-11.2-13.2-16.8-19.8
		c-7.4-8.7-14.7-17.5-22-26.3c-5.6-6.8-11.1-13.6-16.7-20.4c-7.5-9.2-14.9-18.5-22.6-27.6c-5-5.8-9.9-11.7-14.8-17.7
		c-2.2-2.7-1.8-3.9,1.1-5.7c13.3-8.4,26.5-16.8,39.6-25.3c11.5-7.4,23-14.9,34.4-22.3c23.7-15.3,47.6-30.3,71.4-45.5
		c17.3-11.1,34.3-22.5,51.6-33.5c23.7-15.2,47.6-30.3,71.4-45.4c2.5-1.6,5-5.1,7.5-4.4c2.2,0.6,3.6,4.4,5.3,6.9
		c14.8,22.8,29.6,45.6,44.3,68.4c19.1,29.6,38.3,59.2,57.3,88.9c2.1,3.4,4.5,4.5,8.4,4.5c126.5-0.1,253-0.1,379.5,0
		c3.6,0,5.5-1.1,7.4-4c25-38.6,50.1-77.1,75.2-115.6c9.8-15.1,19.6-30.2,29-45.5c2.1-3.5,3.7-3.1,6.5-1.3c32,20.5,64.1,41,96.2,61.5
		c42.2,27,84.4,53.9,126.6,80.9c16.8,10.7,33.5,21.5,50.4,32c3.2,2,3.2,3.6,1,6.3c-13.9,16.5-27.7,33-41.5,49.6
		c-15.8,19-31.5,38-47.3,56.9c-12.4,14.9-24.8,29.7-37.2,44.5c-12.6,15.1-25.1,30.3-37.7,45.4c-13.8,16.6-27.6,33.1-41.4,49.6
		c-3.3,3.9-6.6,7.9-9.9,11.8c-0.6,0.7-1.3,1.3-1.3,2.5c1.6,168.4,0.2,336.9,0.8,505.3c0,5.2-2.2,5-5.8,5c-240-0.1-480,0-719.9,0
		c-2,0-4,0.1-6,0.1c-0.7,0.2-1.3-0.1-1.7-0.7c-1.2-2.3-0.9-4.9-0.9-7.4c0-164.6,0-329.3,0-493.9c0-1.5,0-3,0.2-4.5
		c0.3-3.2,2-4.8,5.1-4.9c2.5-0.1,5-0.1,7.5-0.1c236.3,0,472.6,0,708.9,0c2.5,0,5,0.5,7.4-0.6c1.5-2.4-0.6-3.8-1.5-5.3
		c-22.2-36-44.6-71.9-66.9-107.8c-28.2-45.4-56.4-90.8-84.7-136.2c-8.1-13.1-4.7-11.2-19.9-11.2c-127.1,0-254.2,0-381.3-0.2
		c-6.3,0-9.9,2-13.2,7.3c-43.1,69.9-86.7,139.5-129.9,209.3c-7.9,12.7-15.8,25.5-23.7,38.2c-1.4,2.2-2.6,4.7-4.9,6.3
		C1753.1,612.8,1752.3,612.8,1751.6,612.2z"/>
	<path fill="#CFD1CF" d="M2483.5,613.1c-1.8,1.8-4,0.9-6,0.9c-239.3,0.1-478.5,0-717.8,0.1c-7.6,0-6.7-1.1-6.7,6.5
		c0,165.8,0,331.6,0,497.4c0,2,0,4-0.1,6c-1.5,1.2-3.2,0.6-4.8,0.6c-158.2,0-316.4,0-474.6,0c-1.6,0-3.3,0.4-4.9-0.5
		c0-2.2-0.1-4.3-0.1-6.5c0-166,0-331.9,0-497.9c0-2.2,0-4.3-0.1-6.5c2.5,0,5-0.1,7.5-0.1c156.5,0,313,0,469.5,0
		c2.1,0,4.3,0.9,6.2-0.9c0.7,0,1.3,0,2-0.1c2.3-0.6,4.6-0.6,6.9-0.6c237.8,0,475.6,0,713.3,0
		C2477.1,611.5,2480.6,610.8,2483.5,613.1z"/>
	<path fill="#EEECE9" d="M286.2,986.3c-18.9,0.1-38.4-6.1-58-13.8c-21.2-8.3-35.6-23.2-47.6-41.2c-12.3-18.3-18.5-38.8-20.3-60.8
		c-2.9-36.6,4.8-70.2,28.3-99.1c22.1-27.2,51.3-41.7,85.9-45.3c22.7-2.4,44.9-0.1,65.7,10.1c17.5,8.5,31.9,20.9,43.7,36.4
		c1.7,2.3,1.8,3.3-0.9,4.7c-7.1,3.7-14,7.7-20.9,11.6c-1.7,1-2.8,1.4-4.4-0.7c-37.2-51.3-118.6-44-150.4,11.2
		c-23.9,41.5-17.6,99.7,15.2,131.8c33.7,32.9,89.4,37.5,125.2,3.9c3.7-3.4,7-7.1,9.8-11.3c1.7-2.6,3-2.6,5.6-1.1
		c6.6,3.9,13.2,7.7,20.1,11c3.5,1.7,3.2,3,1.1,5.6C359.9,970.4,328.2,986.5,286.2,986.3z"/>
	<path fill="#EEECE9" d="M678.8,902.5c0,24.8-0.1,49.6,0.1,74.5c0,3.5-0.8,4.6-4.4,4.4c-6.5-0.3-13-0.4-19.5,0
		c-4.1,0.2-4.8-1.3-4.8-5c0.1-45.6,0.1-91.3,0.1-136.9c0-4-0.2-8,0.1-12c0.2-3.2-0.8-4.4-4.2-4.2c-7.6,0.4-15.3,0.4-22.9,0.8
		c-2.4,0.1-3.7,0-3.6-3c0.2-6.3,0.2-12.7,0-19c-0.1-2.9,1.2-3.2,3.6-3.1c7.7,0.1,15.3-0.1,23,0.1c3.4,0.1,4.2-1.1,4.2-4.3
		c-0.2-11.5-0.4-22.9,3.2-34.1c7-22.3,24.5-35.5,47.9-35.7c9.1-0.1,17.9,0.8,26.3,4.5c2.5,1.1,3.6,2.3,2.3,5.3
		c-1.9,4.4-3.2,9.1-4.6,13.7c-0.9,3-2,4.4-5.5,2.7c-4.8-2.4-10.2-3.1-15.6-2.5c-16.3,1.8-25,12.4-25.6,31.3
		c-0.2,4.8,0.2,9.7-0.1,14.5c-0.2,3.3,1.1,3.8,4,3.8c9.8-0.2,19.7,0,29.5-0.1c2.8,0,3.7,0.7,3.6,3.6c-0.2,5.8-0.2,11.7,0,17.5
		c0.1,3.2-0.7,4.3-4.1,4.2c-9.2-0.2-18.3,0.2-27.5-0.2c-4.8-0.2-5.6,1.5-5.6,5.9C678.9,853.5,678.8,878,678.8,902.5z"/>
	<path fill="#EEECE9" d="M757.5,903.2c0-24.8-0.1-49.6,0.1-74.5c0-3.7-0.9-4.9-4.7-4.7c-7.5,0.5-15,0.4-22.4,0.8
		c-2.4,0.1-3.3-0.5-3.3-2.9c0.1-6.3,0.1-12.7,0-19c-0.1-2.8,1.2-3.3,3.6-3.2c7,0.1,14-0.2,21,0.1c4.4,0.2,6.1-0.8,5.9-5.6
		c-0.5-10-0.3-20,2.3-29.8c7-26.3,27-40.3,55.2-38.7c7,0.4,13.8,1.8,20.3,4.6c2.4,1.1,3,2.4,2,5c-1.9,5-3.6,10-5.1,15.1
		c-0.8,2.5-1.7,3-4.2,1.8c-5.2-2.5-10.8-3.4-16.5-2.8c-14.2,1.6-22.8,10.2-24.8,25c-1,7.1-0.7,14.3-0.8,21.4
		c-0.1,2.8,1.2,3.3,3.6,3.2c9.7-0.1,19.3,0.1,29-0.1c3.4-0.1,4.7,0.7,4.5,4.3c-0.3,5.3-0.3,10.7,0,16c0.2,3.7-0.7,5.2-4.8,5
		c-9.1-0.3-18.3,0.1-27.5-0.2c-4.1-0.1-4.9,1.2-4.9,5c0.1,48.1,0.1,96.3,0.1,144.4c0,8.7,0,8.7-8.9,8.7c-5,0-10-0.2-15,0.1
		c-3.7,0.2-4.7-0.8-4.7-4.6C757.6,952.8,757.5,928,757.5,903.2z"/>
	<path fill="#EEECE9" d="M2483.5,613.1c-96.3,0-192.6,0-288.9,0c-144.9,0-289.9,0-434.8,0c-2.1,0-4.4,0.8-6.2-0.9
		c26.2-42.2,52.3-84.4,78.5-126.6c27.2-43.7,54.4-87.4,81.5-131.2c2.1-3.3,4.2-4.7,8.2-4.7c131.3,0.1,262.6,0.1,393.9,0.1
		c3,0,5.1,0.4,6.9,3.4c53.1,85.7,106.3,171.3,159.5,256.9C2482.7,611,2483.7,611.8,2483.5,613.1z"/>
	<path fill="#EEECE9" d="M2421.7,992.5c-11,0-21-0.1-31,0c-2.5,0-3.4-1.8-4.5-3.3c-15.9-21.8-31.9-43.5-47.8-65.3
		c-1.4-1.9-2.8-3.7-4.4-5.8c-3.5,3-5.7,7-8.3,10.5c-14.8,20.1-29.6,40.3-44.2,60.5c-1.7,2.4-3.4,3.6-6.5,3.5
		c-9.3-0.2-18.6-0.1-28.1-0.1c0.1-2.5,1.8-3.8,3-5.3c21.1-28.3,42.2-56.6,63.4-84.8c2.4-3.2,2.1-5.1-0.2-8.1
		c-20.5-27.3-40.8-54.7-61.2-82.1c-0.6-0.8-1.1-1.6-2.2-3.1c11.2,0,21.6,0,32,0c2.3,0,2.8,2.2,3.8,3.5
		c15.1,20.7,30.3,41.4,45.2,62.2c2.5,3.5,3.5,3.4,6,0c14.9-20.8,30.2-41.5,45.1-62.3c1.8-2.6,3.7-3.7,7-3.6c9.3,0.2,18.7,0.1,29,0.1
		c-2.3,3.1-4.1,5.7-6.1,8.2c-19.2,25.8-38.4,51.6-57.7,77.3c-2.1,2.8-2.2,4.6,0,7.5c21.5,28.4,42.8,57,64.2,85.5
		C2419.3,989,2420.2,990.3,2421.7,992.5z"/>
	<path fill="#323645" d="M1508.6,834.7c11-11.6,23.3-19.6,37.2-25c16.7-6.4,33.8-6.8,50.9-2c19.8,5.5,30.1,19.6,33.8,39.2
		c1,5.4,1.3,10.9,1.3,16.4c0,41.3-0.1,82.6,0.1,124c0,4.7-1.4,5.9-5.8,5.7c-6.5-0.4-13-0.2-19.5,0c-2.8,0.1-3.7-0.9-3.7-3.7
		c0.1-38-0.1-76,0.2-114c0-5.5,0.2-11-0.7-16.3c-3-17.1-14.5-27.1-32.2-28.8c-24.3-2.3-43.4,7.3-59.1,25.1c-2,2.3-2.6,4.7-2.6,7.7
		c0.1,41.5,0,83,0.2,124.5c0,4.2-1.1,5.4-5.2,5.2c-6.5-0.4-13-0.3-19.5,0c-3.6,0.2-4.4-1.1-4.4-4.5c0.1-28.7,0.1-57.3,0.1-86
		c0-29.3,0.1-58.7-0.1-88c0-4.3,1.3-5.4,5.3-5.1c5.6,0.3,11.3,0.1,17,0.1c6.7,0,6.7,0,6.7,6.5
		C1508.6,821.5,1508.6,827.6,1508.6,834.7z"/>
	<path fill="#323646" d="M1421.8,866.1c0,40.3-0.1,80.6,0.1,120.9c0,5-1.4,6.2-6.1,5.9c-7-0.4-14-0.3-21,0c-4,0.2-5-1.1-5-5
		c0.1-36.8,0.1-73.6,0.1-110.4c0-44.3,0.1-88.6-0.1-132.9c0-4,0.8-5.6,5.2-5.3c7.3,0.4,14.7,0.3,22,0c4-0.2,4.9,1.1,4.9,5
		c-0.1,35.6-0.1,71.3-0.1,106.9C1421.8,856.1,1421.8,861.1,1421.8,866.1z"/>
	<path fill="#323746" d="M1563.6,1065.3c0.4,6-0.8,11.8-3.3,17.3c-2.2,4.9-5.6,8.7-11.6,8.8c-6,0.1-9.6-3.4-11.8-8.4
		c-5.3-12.2-5.2-24.5,0.5-36.6c2.2-4.7,5.6-8.3,11.5-8.2c5.8,0.2,8.9,3.9,11.2,8.6C1562.7,1052.5,1563.9,1058.7,1563.6,1065.3z"/>
	<path fill="#333746" d="M1507.8,1083.1c5.5,0,10.2-0.1,15,0.1c1,0,3.6-1.5,3.1,1.4c-0.4,2,0,5.5-3.1,5.4c-7.5-0.2-15-0.2-22.4,0.1
		c-0.6,0-1.3,0.1-1.6-0.8c-0.4-1.4,0.5-2.1,1.3-3c4.4-4.1,8.2-8.7,11.5-13.8c3.5-5.4,6.7-11.1,7.6-17.7c0.5-3.6,0.3-7.2-3.4-9.1
		c-3.5-1.9-5.9,0.7-8.4,2.6c-0.7,0.5-1.1,1.3-1.8,1.7c-1.5,0.8-1.8,4.6-4,2.7c-1.7-1.4,1-3.4,2-4.9c2.3-3.5,5-6.7,8.8-8.6
		c6.6-3.3,12.6,0.1,13.4,7.4c0.6,5.7-1.3,10.8-3.8,15.7C1518.2,1069.6,1512.7,1075.7,1507.8,1083.1z"/>
	<path fill="#333746" d="M1615.7,1063.5c3.5-3.7,6.6-6.9,8.2-11.2c1.2-3.2,1.6-6.4-1.7-8.5c-3.1-1.9-5.2,0.5-7.4,2.3
		c-1.4,1.1-2.6,4.4-4.4,2.7c-2.4-2.2,1.1-3.5,2.2-5c1.6-2.1,3.9-3.7,6.4-4.7c3.2-1.4,6.5-1.8,9.4,0.6c3,2.5,2.7,6,1.8,9.2
		c-0.9,3.4-5,6.1-4.9,8.8c0.1,2.7,4.8,4.7,6.1,8.1c2.6,6.8,2.1,13.4-2.3,19.4c-3.7,5.1-8.8,6.9-14.9,5.8c-2.5-0.5-4.9-1.3-6.4-3.5
		c-1-1.5-0.9-3.2,0.6-4.5c1.4-1.2,2.9-1.1,3.9,0.3c3,4,6.5,6.5,11.3,3c3.7-2.7,4.4-10.3,1.7-15.2
		C1623.2,1067.4,1619.6,1065.6,1615.7,1063.5z"/>
	<path fill="#323746" d="M1589.6,1062.1c0,6.5,0.1,13,0,19.5c-0.1,3.3,0.7,5.6,4.5,5.8c1.1,0.1,2.6-0.1,2.6,1.6
		c0,1.8-1.6,1.4-2.7,1.3c-5.3-0.3-10.6-0.4-16,0c-0.9,0.1-2.2,0.3-2.4-1c-0.3-1.7,1-1.8,2.2-1.9c4-0.1,4.9-2.4,4.8-6
		c-0.2-10-0.4-20-0.2-30c0.1-4.6-1.2-6.5-5.8-6.2c-1.2,0.1-3.5,0.7-3.5-1.5c0-1.7,2-1.4,3.2-1.5c3.4-0.4,6.5-1.3,9.4-3
		c3.1-1.8,3.8-0.5,3.7,2.4C1589.6,1048.4,1589.6,1055.3,1589.6,1062.1z"/>
	<path fill="#333847" d="M1433.5,1091.4c-7.9-0.1-9.7-2-8.8-9.8c0.1-0.8-0.2-1.8,0.9-2c1.3-0.3,1.7,0.6,2,1.7
		c0.9,3.2,2.7,5.7,6.2,6.5c2.8,0.6,5.5,0.3,6.8-2.6c1.2-2.7-0.3-4.8-2.7-6.2c-2.4-1.4-4.9-2.8-7.3-4.3c-4.7-3.1-6.3-7.4-4.8-12
		c1.3-3.8,5.9-6.3,11.1-6c6.2,0.4,7.6,1.8,7.4,7.7c0,1.1,0.5,2.6-1.2,2.8c-1.4,0.2-1.2-1.2-1.6-2.1c-1-2.5-2.4-4.8-5.5-5
		c-2.2-0.2-3.9,0.5-4.9,2.6c-1,2.1-0.5,4,1.3,5.3c2,1.4,4.2,2.6,6.4,3.9c6.4,3.6,8.4,7.3,6.8,12.8
		C1444.2,1088.9,1439.8,1091.4,1433.5,1091.4z"/>
	<path fill="#333746" d="M1449.5,1059.3c5.5-3.8,8.8-7.3,11.4-11.3c1.1,0.5,1,1.3,0.9,1.8c-0.9,5.1,1,7.3,6.3,6.4
		c1.2-0.2,3.1-0.4,2.9,1.6c-0.1,2-2.1,1.4-3.2,1.2c-5.1-0.9-6.6,1.2-6.2,6.2c0.5,5.8,0.1,11.6,0.1,17.4c0,1.8-0.4,3.9,1.7,4.8
		c1.8,0.8,3.1-0.6,4.5-1.4c0.9-0.5,1.7-2.7,3.1-0.9c1.3,1.6-0.5,2.3-1.3,3.2c-2.9,2.7-6.4,3.8-10.1,2.6c-3.6-1.2-3.1-4.8-3.2-7.7
		c-0.2-6-0.3-12,0-17.9C1456.6,1061.3,1456.6,1058,1449.5,1059.3z"/>
	<path fill="#343847" d="M1477.4,1086c-0.1-3.2,1.6-5.3,4.6-5.3c3.3,0,4.9,2.2,4.8,5.6c-0.1,3.1-1.6,5.1-4.8,5
		C1478.8,1091.2,1477.4,1089.1,1477.4,1086z"/>
	<path fill="#EEECE9" d="M1237.9,893.2c-0.3-10.2-0.7-20.3-3.3-30.2c-9-34.5-28.7-59.5-64.8-67.2c-36.7-7.8-68,2.9-90.8,33.6
		c-18.9,25.4-23.2,54.4-16.7,84.9c5.5,25.8,18.8,46.5,42.2,59.6c24.5,13.7,50.6,14.9,77.4,8.5c15.4-3.6,28.7-11.1,40.5-21.7
		c2.2-2,2.8-3.5,0.7-6.1c-4-4.9-7.5-10.1-11.6-15.7c-5.8,5.9-12,10.4-18.9,13.9c-21.8,11-44.4,13.6-66.8,3.2
		c-21.3-9.9-32-28.2-35.7-50.9c-1-6-1-6,5-6c45.7,0,91.3-0.1,137,0.1C1237.1,899.3,1238,897.9,1237.9,893.2z M1206.1,878.3
		c-18.6,0.1-37.3,0-55.9,0c-18.5,0-37,0-55.4,0c-2.4,0-4.6,0.4-4.3-3.4c2.4-25.9,20.4-51.7,47.6-56.5c37.2-6.6,69.8,19.1,72.1,56.9
		C1210.3,879.3,1207.9,878.3,1206.1,878.3z"/>
	<path fill="#EEECE9" d="M1024.5,894.3c-0.7-11.3-0.8-22.7-4-33.6c-9.6-33.5-29.4-57.7-64.6-65c-35.7-7.4-66.5,2.6-89.2,32
		c-21.7,28.2-25.4,60.2-16.1,93.7c8,29,26.6,49.1,55.2,59.2c18.8,6.7,38.2,6.8,57.6,3c17.4-3.4,32.6-11.1,45.7-23.1
		c1.4-1.3,3.2-2.3,1.2-4.7c-4.2-5.3-8.1-10.9-12.1-16.4c-21.5,17-33.8,22.1-55.1,22.9c-34.7,1.2-62.3-22.6-66.6-57.2
		c-0.6-4.8,0.1-6,5.2-6c46,0.2,92,0.1,138,0.2C1023.6,899.2,1024.7,898.1,1024.5,894.3z M992.6,878.4c-18.7-0.1-37.3,0-56,0
		c-18.7,0-37.3,0-56,0.1c-2.9,0-4.4-0.4-3.8-3.8c2.6-17.5,9.2-32.8,23.1-44.5c14.3-12.1,30.8-14.2,48.3-11.4
		c25.6,4.2,45.1,25.1,48.4,56.1C997,878.4,995.2,878.4,992.6,878.4z"/>
	<path fill="#EEECE9" d="M593.5,863.5c-18-78.4-101.9-84.6-142.3-53.9c-26.3,20-36.3,47.8-37.1,79.8c0.1,2.2,0.2,4.3,0.3,6.5
		c1.7,42.2,29.7,86.1,82.6,89.9c31.8,2.3,58.9-7.4,78.7-33.3C596,925.8,600.8,895.4,593.5,863.5z M543.9,946.5
		c-22.1,21.1-66.6,22.1-87.2-11.9c-16.9-28-17.2-57.3-1.4-85.9c11.3-20.3,29.6-29.6,52.8-28.4c22.1,1.2,37.7,12.6,48.1,31.6
		c6.6,12.1,9.3,25.2,9.2,44.7C565.2,912.1,559.6,931.6,543.9,946.5z"/>
	<path fill="#EEECE9" d="M1968,862.2c1.7-0.6,2.3-0.9,2.8-1.1c23-8.2,36.7-24.4,39.4-48.6c2.8-24.5-4.3-45.5-25.3-60.3
		c-13.7-9.7-29.5-12.7-45.9-12.8c-35.7-0.2-71.3,0-107-0.1c-3.7,0-4.7,0.8-4.7,4.6c0.1,81.3,0.1,162.6,0,243.9
		c0,3.5,0.6,4.8,4.5,4.8c37.8-0.2,75.6-0.1,113.5-0.1c41.3,0,65.9-25.2,69.9-58C2019.5,900.3,1997.1,869,1968,862.2z M1863.4,767.8
		c12.7,0.2,25.3,0.1,38,0.1c12.2,0,24.3-0.2,36.5,0c18.2,0.3,32.6,10.7,37.6,26.7c5.3,17.3-0.2,35.8-13.6,45.8
		c-9.5,7-20.6,8.1-31.8,8.2c-22.3,0.3-44.6,0-66.9,0.2c-3.8,0-4.7-1.1-4.7-4.8c0.2-23.8,0.2-47.6,0-71.4
		C1858.3,768.5,1859.6,767.8,1863.4,767.8z M1969.1,953.1c-9.4,8.6-20.9,11.2-33.2,11.3c-11.3,0-22.7,0-34,0
		c-13.3,0-26.7-0.1-40,0.1c-3.3,0-4.2-0.8-4.2-4.2c0.1-26.5,0.1-53,0-79.5c0-3.1,0.9-3.9,3.9-3.9c26.2,0.2,52.3,0,78.5,0.3
		c17.9,0.2,33.4,11.3,39.3,27.4C1985.7,921.5,1981.4,941.7,1969.1,953.1z"/>
	<path fill="#EEECE9" d="M2234.6,881.7c-7.1-43.5-38.8-76.6-86.2-77.7c-37.3-0.8-65.8,14-83.3,47.6c-10,19.3-13.1,40.1-10.5,61.5
		c3.9,32,17.6,58.5,47.2,73.6c30.2,15.4,61.4,15.2,90.5-2.5c31-18.9,42.8-49,43.8-84.2C2235.9,893.9,2235.6,887.8,2234.6,881.7z
		 M2192.8,946.2c-10.8,18.2-27.9,25.8-46.7,26.1c-25.9-0.4-43.3-11.8-53.5-33c-12-24.9-12.2-50.5,0.1-75.5
		c10.4-21,27.7-32.5,51.4-32.5c23,0,40.6,10.5,51.1,30.7C2209.9,890.3,2209.1,918.8,2192.8,946.2z"/>
	<path fill="#CFD0CF" d="M1540.6,1064.5c0.1-5.8,0.3-11.6,2-17.3c0.9-3,2.4-5.8,6-5.8c3.6,0,5.3,2.9,5.9,5.8
		c2.6,11.7,2.6,23.4,0,35.1c-0.6,2.9-2.1,5.9-5.8,5.9c-4,0.1-5.3-2.9-6.2-6C1540.8,1076.5,1540.6,1070.5,1540.6,1064.5z"/>
	<path fill="#333746" d="M1404.1,1072c1.5,0,3,0,4.5,0c2.7,0,5.3,0,8,0c2.4,0.1,3.2-1.1,2.9-3.4c-0.7-5.5-4.7-10.3-9.6-11.6
		c-5-1.3-10.4,0.9-13.8,5.7c-4,5.9-4.7,12.4-2.6,19c3.2,9.9,15.9,13,23.6,6c0.7-0.7,1.8-1.3,1.1-2.4c-0.8-1.1-1.8-0.3-2.6,0.2
		c-7.2,4.5-14.1-1.1-16.1-7.1C1397.6,1072.6,1398,1072,1404.1,1072z M1407,1060.1c4.5,0,8.1,3.6,8.2,8.1h-16.3
		C1398.9,1063.7,1402.5,1060.1,1407,1060.1z"/>
</g>
<text transform="matrix(1 0 0 1 613.3381 1278.2842)" fill="#323645" font-family="'PTSans-Regular'" font-size="115.007" letter-spacing="23">КОФЕЙНАЯ КОМПАНИЯ</text>
</svg>
